Coordinates
version=1
nRows=12
nColumns=34
inDegrees=yes

Units are S.I. units (second, meters, Newtons, ...)
If the header above contains a line with 'inDegrees', this indicates whether rotational values are in degrees (yes) or radians (no).

endheader
time	pelvis_tilt	pelvis_list	pelvis_rotation	pelvis_tx	pelvis_ty	pelvis_tz	hip_flexion_r	hip_adduction_r	hip_rotation_r	knee_angle_r	ankle_angle_r	subtalar_angle_r	mtp_angle_r	hip_flexion_l	hip_adduction_l	hip_rotation_l	knee_angle_l	ankle_angle_l	subtalar_angle_l	mtp_angle_l	lumbar_extension	lumbar_bending	lumbar_rotation	arm_flex_r	arm_add_r	arm_rot_r	elbow_flex_r	pro_sup_r	arm_flex_l	arm_add_l	arm_rot_l	elbow_flex_l	pro_sup_l
      0.00000000	     -1.81258948	     -0.36315334	     -1.78550415	      1.83384081	      0.87508761	     -0.21366138	     -0.60910076	     -4.02815036	     -0.21945131	      4.68720029	      1.72179499	    -16.31011142	      0.00000000	     -2.61448854	     -5.03021898	     -5.57844258	      3.43583479	      7.24010146	     -5.45085144	      0.00000000	     -6.13249161	      2.38764083	     -3.47887125	     12.87879434	     -9.20073272	     42.53896968	     83.98055514	     97.45338042	      1.15819685	     -7.70350449	     24.02512129	     86.90669021	     97.62915562
      0.01666670	     -4.08606551	      0.14981800	     -1.77670789	      1.83594981	      0.87352301	     -0.21417021	      2.34527317	     -4.39794128	      1.26884163	      5.24099955	      4.94515841	    -14.22717528	      0.00000000	      0.94502220	     -4.22930154	     -5.58104514	      4.11195440	      8.09891753	     -4.05347255	      0.00000000	     -2.91501655	      2.22850779	     -3.38187081	     11.11141082	     -9.17688246	     40.43348374	     83.45081029	     96.78385853	     -0.16985913	     -7.93130754	     23.40215090	     86.91729476	     96.72666017
      0.03333330	     -4.23846463	      1.05143293	     -2.01568180	      1.83601357	      0.87372847	     -0.21338427	      2.19262563	     -5.59723701	      1.25270119	      4.38667106	      4.93046584	    -13.83660472	      0.00000000	      0.83905034	     -3.41118132	     -6.21712589	      3.45463211	      7.50129885	     -3.84477657	      0.00000000	     -2.58791411	      1.18842169	     -2.82621680	     11.03856653	     -8.96377732	     40.31550011	     82.90373495	     96.69429368	      0.11540707	     -8.42810009	     23.17017621	     86.40505452	     96.43237991
      0.05000000	     -3.78942940	      1.57076095	     -2.11828106	      1.83617474	      0.87535162	     -0.21299656	      1.33998548	     -6.28868511	      1.62720782	      3.69604186	      5.31032151	    -13.68427522	      0.00000000	     -0.45227566	     -2.73607145	     -6.21847789	      2.21350959	      6.94961345	     -4.17305285	      0.00000000	     -2.90808944	      0.52174983	     -2.21900297	     10.88277695	     -8.86928439	     40.25667812	     81.96448141	     96.61206290	      0.70268562	     -8.65803101	     23.35570070	     85.56154543	     96.11616372
      0.06666670	     -3.26672943	      1.74914208	     -2.09762426	      1.83644627	      0.87647527	     -0.21305537	      0.32052289	     -6.48503926	      2.00462514	      2.85749223	      5.37845904	    -13.94078592	      0.00000000	     -1.60020845	     -2.39748377	     -5.73716598	      1.17542530	      6.59464329	     -4.75061828	      0.00000000	     -3.50068612	      0.33929771	     -1.80841592	     10.92247527	     -8.93161399	     40.61463070	     82.04534868	     96.53809685	      1.25139958	     -8.77768901	     24.23124892	     85.03790065	     95.93666139
      0.08333330	     -2.80546574	      1.81876168	     -2.00910308	      1.83666424	      0.87746456	     -0.21327053	     -0.50756988	     -6.51982673	      2.49790589	      2.25759085	      5.34657162	    -14.49556356	      0.00000000	     -2.47277341	     -2.19318793	     -5.14956058	      0.48810582	      6.31390324	     -5.46123614	      0.00000000	     -4.05933680	      0.21567829	     -1.49471229	     11.00895894	     -9.05970305	     40.95061024	     82.58432400	     96.40057559	      1.82572500	     -8.78196101	     25.28893044	     84.80181477	     95.85608526
      0.10000000	     -2.54627244	      1.84768874	     -1.91296720	      1.83688929	      0.87815061	     -0.21347689	     -1.06462757	     -6.53260214	      2.89677902	      1.76116281	      5.17869227	    -15.07900471	      0.00000000	     -2.99526131	     -2.06881272	     -4.64133889	      0.02360121	      6.01055391	     -5.96113000	      0.00000000	     -4.37519467	      0.16750523	     -1.25238754	     11.01519921	     -9.21826574	     41.19312945	     83.17706533	     96.19168416	      2.26088217	     -8.71306264	     26.10537404	     84.53602951	     95.80711482
      0.11666670	     -2.54207016	      1.85311060	     -1.90050565	      1.83685636	      0.87839025	     -0.21324985	     -1.05782701	     -6.50086174	      2.90218875	      1.74888678	      5.18278936	    -15.08073095	      0.00000000	     -2.99961385	     -2.03796619	     -4.63661167	      0.02230987	      6.00974290	     -5.96062369	      0.00000000	     -4.37445941	      0.16657627	     -1.24893605	     11.01744754	     -9.21477631	     41.19500022	     83.18010851	     96.19112281	      2.26145803	     -8.70962639	     26.10791100	     84.53567664	     95.80702678
      0.13333330	     -2.20295235	      1.86502136	     -1.66342976	      1.83689231	      0.87895042	     -0.21302584	     -1.84128978	     -6.47891279	      3.36660850	      1.07416633	      4.84069211	    -16.05283896	      0.00000000	     -3.36163617	     -2.01967314	     -3.86827696	      0.00000000	      5.70893806	     -6.58885584	      0.00000000	     -4.81858351	      0.11397522	     -1.14791454	     11.16190148	     -9.47696147	     41.77318839	     83.96752507	     95.93000611	      2.85454470	     -8.68884844	     26.81295996	     83.96523336	     95.74756951
      0.15000000	     -2.20834876	      1.88306902	     -1.65597356	      1.83695382	      0.87919723	     -0.21245791	     -1.84217893	     -6.45516329	      3.37147758	      1.06760503	      4.84270908	    -16.05508485	      0.00000000	     -3.36452436	     -2.01613264	     -3.86344000	      0.00000000	      5.70238763	     -6.58623224	      0.00000000	     -4.82100652	      0.11213219	     -1.14423242	     11.16115506	     -9.47864603	     41.77455091	     83.96826404	     95.92884952	      2.85521422	     -8.69151676	     26.81323832	     83.96394078	     95.74706345
      0.16666670	     -1.96667847	      1.84320834	     -1.48015225	      1.83686217	      0.87988926	     -0.21208523	     -2.41743462	     -6.34895250	      3.79345626	      0.53826182	      4.31818493	    -17.01027069	      0.00000000	     -3.60733117	     -2.11339134	     -3.38333470	      0.00000000	      5.15563362	     -6.95069898	      0.00000000	     -5.18726315	      0.08138958	     -1.00117586	     11.14937143	     -9.73972155	     42.10862519	     84.49367971	     95.53213127	      3.29534499	     -8.89009919	     27.33561217	     83.54963408	     95.57393269
      0.18333330	     -1.96364971	      1.86314720	     -1.47414737	      1.83666400	      0.88000918	     -0.21177004	     -2.41004317	     -6.32958037	      3.79643354	      0.53090543	      4.31937817	    -17.01124992	      0.00000000	     -3.60994796	     -2.11793824	     -3.38128462	      0.00000000	      5.15257722	     -6.94897768	      0.00000000	     -5.18915834	      0.07935227	     -1.00103349	     11.14714187	     -9.74270128	     42.10914981	     84.49310931	     95.53118485	      3.29667776	     -8.89233790	     27.33513790	     83.54905942	     95.57335486
